<svg width="25" height="25" viewBox="0 0 25 25" fill="none" xmlns="http://www.w3.org/2000/svg">
<mask id="mask0_4478_158" style="mask-type:alpha" maskUnits="userSpaceOnUse" x="0" y="0" width="25" height="25">
<rect x="0.822266" y="0.683594" width="24" height="24" fill="#D9D9D9"/>
</mask>
<g mask="url(#mask0_4478_158)">
<path d="M12.8223 20.6836C12.2723 20.6836 11.8014 20.4878 11.4098 20.0961C11.0181 19.7044 10.8223 19.2336 10.8223 18.6836C10.8223 18.1336 11.0181 17.6628 11.4098 17.2711C11.8014 16.8794 12.2723 16.6836 12.8223 16.6836C13.3723 16.6836 13.8431 16.8794 14.2348 17.2711C14.6264 17.6628 14.8223 18.1336 14.8223 18.6836C14.8223 19.2336 14.6264 19.7044 14.2348 20.0961C13.8431 20.4878 13.3723 20.6836 12.8223 20.6836ZM12.8223 14.6836C12.2723 14.6836 11.8014 14.4878 11.4098 14.0961C11.0181 13.7044 10.8223 13.2336 10.8223 12.6836C10.8223 12.1336 11.0181 11.6628 11.4098 11.2711C11.8014 10.8794 12.2723 10.6836 12.8223 10.6836C13.3723 10.6836 13.8431 10.8794 14.2348 11.2711C14.6264 11.6628 14.8223 12.1336 14.8223 12.6836C14.8223 13.2336 14.6264 13.7044 14.2348 14.0961C13.8431 14.4878 13.3723 14.6836 12.8223 14.6836ZM12.8223 8.68359C12.2723 8.68359 11.8014 8.48776 11.4098 8.09609C11.0181 7.70443 10.8223 7.23359 10.8223 6.68359C10.8223 6.13359 11.0181 5.66276 11.4098 5.27109C11.8014 4.87943 12.2723 4.68359 12.8223 4.68359C13.3723 4.68359 13.8431 4.87943 14.2348 5.27109C14.6264 5.66276 14.8223 6.13359 14.8223 6.68359C14.8223 7.23359 14.6264 7.70443 14.2348 8.09609C13.8431 8.48776 13.3723 8.68359 12.8223 8.68359Z" fill="#787878"/>
</g>
</svg>
